<?xml version="1.0" encoding="UTF-8" standalone="no" ?>
<!DOCTYPE svg PUBLIC "-//W3C//DTD SVG 1.1//EN" "http://www.w3.org/Graphics/SVG/1.1/DTD/svg11.dtd">
<svg xmlns="http://www.w3.org/2000/svg" xmlns:xlink="http://www.w3.org/1999/xlink" version="1.1" width="1080" height="1080" viewBox="0 0 1080 1080" xml:space="preserve">
<desc>Created with Fabric.js 5.2.4</desc>
<defs>
</defs>
<g transform="matrix(Infinity NaN NaN Infinity 0 0)" id="30142ee2-4738-4019-a516-f0f424c5a3e4"  >
</g>
<g transform="matrix(1 0 0 1 540 540)" id="2e4651d1-e4ff-47ce-ae21-6d8d3f3fb218"  >
<rect style="stroke: none; stroke-width: 1; stroke-dasharray: none; stroke-linecap: butt; stroke-dashoffset: 0; stroke-linejoin: miter; stroke-miterlimit: 4; fill: rgb(255,255,255); fill-rule: nonzero; opacity: 1; visibility: hidden;" vector-effect="non-scaling-stroke"  x="-540" y="-540" rx="0" ry="0" width="1080" height="1080" />
</g>
<g transform="matrix(1.56 0 0 1.57 540 540)"  >
<g style="" vector-effect="non-scaling-stroke"   >
		<g transform="matrix(1 0 0 1 0 0)"  >
<rect style="stroke: none; stroke-width: 1; stroke-dasharray: none; stroke-linecap: butt; stroke-dashoffset: 0; stroke-linejoin: miter; stroke-miterlimit: 4; fill: rgb(255,255,255); fill-rule: nonzero; opacity: 1; visibility: hidden;" vector-effect="non-scaling-stroke"  x="-540" y="-540" rx="0" ry="0" width="1080" height="1080" />
</g>
		<g transform="matrix(1 0 0 1 0 0)"  >
<path style="stroke: rgb(0,0,0); stroke-width: 0; stroke-dasharray: none; stroke-linecap: butt; stroke-dashoffset: 0; stroke-linejoin: miter; stroke-miterlimit: 4; fill: rgb(255,255,255); fill-rule: nonzero; opacity: 1;" vector-effect="non-scaling-stroke"  transform=" translate(-255.95, -256)" d="M 64.1 447.4 L 511.1 447.4 L 511.1 511.5 L 0 511.5 L 0 0.5 L 64.1 0.5 L 64.1 447.4 z M 144 415.8 C 118 415.8 95.7 394.40000000000003 95.7 367.5 C 95.7 340.59999999999997 117.1 319.2 144 319.2 L 148.6 319.2 L 199.7 233.7 C 195.1 226.29999999999998 192.29999999999998 217 192.29999999999998 207.7 C 192.29999999999998 181.7 213.7 159.39999999999998 240.59999999999997 159.39999999999998 C 267.49999999999994 159.39999999999998 288.9 180.79999999999998 288.9 207.7 C 288.9 217 286.09999999999997 226.29999999999998 281.5 233.7 L 332.6 319.2 L 337.20000000000005 319.2 L 340.00000000000006 319.2 L 425.50000000000006 170.5 C 418.1000000000001 163.1 415.30000000000007 153.8 415.30000000000007 144.5 C 415.30000000000007 118.5 436.70000000000005 96.2 463.6000000000001 96.2 C 490.5000000000001 96.2 511.9000000000001 117.6 511.9000000000001 144.5 C 511.9000000000001 171.4 490.5000000000001 192.8 463.6000000000001 192.8 L 460.80000000000007 192.8 L 375.30000000000007 341.5 C 380.9000000000001 348.9 383.70000000000005 358.2 383.70000000000005 368.4 C 383.70000000000005 394.4 362.30000000000007 416.7 335.40000000000003 416.7 C 308.5 416.7 287.1 395.3 287.1 368.4 C 287.1 359.09999999999997 289.90000000000003 349.79999999999995 294.5 342.4 L 243.5 256 L 238.9 256 L 234.3 256 L 183.20000000000002 341.5 C 187.8 348.9 190.60000000000002 358.2 190.60000000000002 367.5 C 191.4 394.5 170 415.8 144 415.8 z" stroke-linecap="round" />
</g>
</g>
</g>
</svg>